<svg xmlns="http://www.w3.org/2000/svg" xmlns:xlink="http://www.w3.org/1999/xlink" version="1.1" x="0px" y="0px" viewBox="0 0 100 100" style="enable-background:new 0 0 100 100;" xml:space="preserve"><path d="M7,45.49c-1.104,0-2,0.896-2,2v5.021c0,1.104,0.896,2,2,2s2-0.896,2-2V47.49C9,46.385,8.104,45.49,7,45.49z"/><path d="M12.733,41.103c-1.104,0-2,0.896-2,2v13.795c0,1.104,0.896,2,2,2s2-0.896,2-2V43.103  C14.733,41.998,13.838,41.103,12.733,41.103z"/><path d="M18.467,44.167c-1.104,0-2,0.896-2,2v7.667c0,1.104,0.896,2,2,2s2-0.896,2-2v-7.667  C20.467,45.062,19.571,44.167,18.467,44.167z"/><path d="M24.2,34.5c-1.104,0-2,0.896-2,2v27c0,1.104,0.896,2,2,2s2-0.896,2-2v-27C26.2,35.396,25.305,34.5,24.2,34.5z"/><path d="M29.933,28.333c-1.104,0-2,0.896-2,2v39.333c0,1.104,0.896,2,2,2s2-0.896,2-2V30.333  C31.933,29.229,31.038,28.333,29.933,28.333z"/><path d="M35.667,20.349c-1.104,0-2,0.896-2,2v55.303c0,1.104,0.896,2,2,2s2-0.896,2-2V22.349  C37.667,21.244,36.771,20.349,35.667,20.349z"/><path d="M41.4,13.667c-1.104,0-2,0.896-2,2v68.667c0,1.104,0.896,2,2,2s2-0.896,2-2V15.667C43.4,14.562,42.504,13.667,41.4,13.667z"/><path d="M47.133,20.667c-1.104,0-2,0.896-2,2v54.667c0,1.104,0.896,2,2,2s2-0.896,2-2V22.667  C49.133,21.562,48.238,20.667,47.133,20.667z"/><path d="M52.867,30.583c-1.104,0-2,0.896-2,2v34.835c0,1.104,0.896,2,2,2s2-0.896,2-2V32.583  C54.867,31.478,53.971,30.583,52.867,30.583z"/><path d="M58.6,40.333c-1.104,0-2,0.896-2,2v15.333c0,1.104,0.896,2,2,2s2-0.896,2-2V42.333C60.6,41.229,59.705,40.333,58.6,40.333z"/><path d="M64.333,33.129c-1.104,0-2,0.896-2,2v29.741c0,1.104,0.896,2,2,2s2-0.896,2-2V35.129  C66.333,34.025,65.438,33.129,64.333,33.129z"/><path d="M70.067,39.132c-1.104,0-2,0.896-2,2v17.735c0,1.104,0.896,2,2,2s2-0.896,2-2V41.132  C72.067,40.028,71.171,39.132,70.067,39.132z"/><path d="M75.8,43c-1.104,0-2,0.896-2,2v10c0,1.104,0.896,2,2,2s2-0.896,2-2V45C77.8,43.896,76.904,43,75.8,43z"/><path d="M81.533,41.235c-1.104,0-2,0.896-2,2v13.53c0,1.104,0.896,2,2,2s2-0.896,2-2v-13.53  C83.533,42.13,82.638,41.235,81.533,41.235z"/><path d="M87.267,45.49c-1.104,0-2,0.896-2,2v5.021c0,1.104,0.896,2,2,2s2-0.896,2-2V47.49C89.267,46.385,88.371,45.49,87.267,45.49z  "/><path d="M93,46.5c-1.104,0-2,0.896-2,2v3c0,1.104,0.896,2,2,2s2-0.896,2-2v-3C95,47.396,94.104,46.5,93,46.5z"/></svg>