<?xml version="1.0" encoding="utf-8"?><svg version="1.1" id="Layer_1" xmlns="http://www.w3.org/2000/svg" xmlns:xlink="http://www.w3.org/1999/xlink" x="0px" y="0px" viewBox="0 0 122.88 47.45" style="enable-background:new 0 0 122.88 47.45" xml:space="preserve"><style type="text/css"><![CDATA[
	.st0{fill:#CB3837;}
]]></style><g><path class="st0" d="M34.07,40.76h20.68v-6.69h13.69V6.69H41.06v34.05H0V0h122.88v40.76H61.44v6.69H34.07V40.76L34.07,40.76z M109.19,13.38v20.68h7V6.69H75.13v27.37h13.69V13.38h6.69v20.68h7V13.38H109.19L109.19,13.38z M61.44,13.38v13.69h-6.69V13.38 H61.44L61.44,13.38z M34.37,6.69H6.69v27.39l27.68,0V6.69L34.37,6.69z M27.37,13.38v20.68h-6.69V13.38H27.37L27.37,13.38z"/></g></svg>